<?xml version="1.0" encoding="UTF-8"?>
<svg id="Layer_1" xmlns="http://www.w3.org/2000/svg" version="1.1" viewBox="0 0 187 35">
  <!-- Generator: Adobe Illustrator 30.1.0, SVG Export Plug-In . SVG Version: 2.1.1 Build 136)  -->
  <defs>
    <style>
      .st0 {
        fill: #fff;
      }
    </style>
  </defs>
  <path class="st0" d="M169.8,14.2c-3.9,0-5.9,2.6-5.9,6.1s2,6,5.6,6,5.8-2.4,5.8-6.1-2.1-6.1-5.5-6.1h0ZM131.1,14.2c-3.8,0-5.9,2.6-5.9,6.1s2,6,5.6,6,5.8-2.4,5.8-6.1-2.1-6.1-5.5-6.1h0ZM53.1,19.2h4.1v3.9c-1.3,1.1-3.2,1.5-4.7,1.5-3.9,0-6.1-2.5-6.1-6.9s2.4-7.3,6-7.3,3.8.8,5.4,2.2l1.4-1.6c-1.4-1.5-3.8-2.6-6.5-2.6-5.5,0-8.7,3.8-8.7,9.2s2.7,8.9,8.6,8.9,5.7-1.4,7-2.8v-6.3h-6.4v1.8h0ZM113.8,26.1h2.1v-6.7c0-1.9.8-3.3,2.8-3.3s2.5.8,2.5,2.8v7.2h2.2v-7.8c0-2.7-1.1-4.1-3.7-4.1s-3,.6-3.8,1.7v-7.3h-2.1v17.5h0ZM112.7,10.5v-1.9h-12.4v1.9h5.1v15.6h2.3v-15.6s5,0,5,0ZM177.3,26.1h2.1v-6.7c0-1.9.8-3.3,2.8-3.3s2.5.8,2.5,2.8v7.2h2.2v-7.8c0-2.7-1.1-4.1-3.7-4.1s-3,.6-3.8,1.7l-.3-1.5h-1.8v11.6h0ZM80.6,26.1h2.1v-6.7c0-1.9.8-3.3,2.8-3.3s2.5.8,2.5,2.8v7.2h2.2v-7.8c0-2.7-1.1-4.1-3.7-4.1s-3,.6-3.8,1.7l-.3-1.5h-1.8v11.6h0ZM146,26.1h2.1v-6.7c0-1.9.8-3.3,2.8-3.3s2.5.8,2.5,2.8v7.2h2.2v-7.8c0-2.7-1.1-4.1-3.7-4.1s-3,.6-3.8,1.7l-.3-1.5h-1.8v11.6h0ZM169.7,24.6c-2.1,0-3.4-1.4-3.4-4.3s1.4-4.3,3.4-4.3,3.3,1.5,3.3,4.4-1.3,4.2-3.3,4.2h0ZM130.9,24.6c-2.1,0-3.4-1.4-3.4-4.3s1.4-4.3,3.4-4.3,3.3,1.5,3.3,4.4-1.3,4.2-3.3,4.2h0ZM163.2,16.5v-1.9h-2.4v-3.3l-2.2.3v3h-1.7v1.9h1.7v7.4c0,1.7.6,2.6,3,2.6s1.3,0,1.8-.2v-1.7c-.5,0-1,.2-1.3.2-1,0-1.3-.5-1.3-1.5v-6.7h2.4ZM97.9,16.5v-1.9h-2.4v-3.3l-2.2.3v3h-1.7v1.9h1.7v7.4c0,1.7.6,2.6,3,2.6s1.3,0,1.8-.2v-1.7c-.5,0-1,.2-1.3.2-1,0-1.3-.5-1.3-1.5v-6.7h2.4ZM138.6,26.1h2.2v-7.3c0-1.7,1-2.5,2.4-2.5s.9,0,1.4,0v-2.1c-.4-.1-.8-.2-1.1-.2-1.2,0-2.1.7-2.6,1.7l-.3-1.4h-1.9v11.6h0ZM61.8,26.1h2.2v-7.3c0-1.7,1-2.5,2.4-2.5s.9,0,1.4,0v-2.1c-.4-.1-.8-.2-1.1-.2-1.2,0-2.1.7-2.6,1.7l-.3-1.4h-1.9v11.6h-.1ZM67.9,23c0,1.7,1,3.4,4,3.4s2.9-.7,3.8-1.7l.3,1.5h1.9v-7.9c0-3.4-2-4-4.4-4s-4.2.5-4.8,3.3h2.3c.3-1,1-1.6,2.5-1.6s2.4.4,2.4,2.4v.8h-2.5c-3,0-5.2,1-5.2,3.9h-.3ZM72.6,24.8c-1.7,0-2.4-.7-2.4-2s.8-2.1,2.8-2.1h2.7v.8c0,2.1-1.3,3.3-3.1,3.3h0Z"/>
  <path class="st0" d="M33.2,20.4c-1.1,6.3-5.9,11.2-12,12.7-.6,0-1.2,0-1.8,0h0c-.7,0-1.3-.3-2-.6-3-1.1-5.5-3.5-6.7-6.4-.2-.5-.4-1-.5-1.5-.3-1-.4-2-.4-3s0-1.5.2-2.2c1.2,2.3,3.1,4.2,5.4,5.4.6.3,1.3.6,2,.8,1.3.4,2.7.7,4.1.7s1.7,0,2.6-.3c.5,0,1-.2,1.5-.4,3.2-1.1,5.9-3.3,7.4-6.3,0-.2.2-.5.4-.7,0,.6,0,1.1-.2,1.7h0ZM1.8,21.2c-.1-.6-.1-1.2,0-1.8h0c.1-.7.3-1.3.6-2,1.1-3,3.5-5.5,6.5-6.7.5-.2,1-.4,1.5-.5,1-.3,2-.4,3-.4s1.5,0,2.2.2c-2.3,1.2-4.2,3.1-5.4,5.4-.3.6-.6,1.3-.8,2-.4,1.3-.7,2.7-.7,4.1s0,1.7.3,2.6c.1.5.2,1,.4,1.5,1.1,3.2,3.3,5.9,6.3,7.4.2,0,.5.2.7.4-.6,0-1.1,0-1.7-.2-6.3-1.1-11.2-5.9-12.7-12.1h-.2ZM1.7,14.6C2.8,8.3,7.6,3.4,13.7,1.9c.6-.1,1.2-.1,1.8,0h0c.7.1,1.3.3,2,.6,3,1.1,5.5,3.5,6.7,6.4.2.5.4,1,.5,1.5.3,1,.4,2,.4,3s0,1.5-.2,2.2c-1.2-2.3-3.1-4.2-5.4-5.4-.6-.3-1.3-.6-2-.8-1.3-.4-2.7-.7-4.1-.7s-1.7,0-2.6.3c-.5.1-1,.2-1.5.4-3.2,1.1-5.9,3.3-7.4,6.3-.1.2-.2.5-.4.7,0-.6.1-1.1.2-1.7h0ZM16.7,24c-2.5-1.2-4.6-3.2-5.8-5.8-.2-.5-.2-1,0-1.5,1.2-2.5,3.2-4.6,5.8-5.8.5-.2,1-.2,1.5,0,2.5,1.2,4.6,3.2,5.8,5.8.2.5.2,1,0,1.5-1.2,2.5-3.2,4.6-5.8,5.8-.5.2-1,.2-1.5,0h0ZM33.1,13.8c0,.6,0,1.2,0,1.8h0c0,.7-.3,1.3-.6,2-1.1,3-3.5,5.5-6.4,6.7-.5.2-1,.4-1.5.5-1,.3-2,.4-3,.4s-1.5,0-2.2-.2c2.3-1.2,4.2-3.1,5.4-5.4.3-.6.6-1.3.8-2,.4-1.3.7-2.7.7-4.1s0-1.7-.3-2.6c-.1-.5-.2-1-.4-1.5-1.1-3.2-3.3-5.9-6.3-7.4-.2-.1-.5-.2-.7-.4.6,0,1.1.1,1.7.2,6.3,1.1,11.2,5.9,12.7,12h0ZM34.6,14.5c-.4-2.3-1.3-4.5-2.5-6.4-1.3-2.1-3.1-3.9-5.2-5.2-1.9-1.2-4.1-2.1-6.4-2.5-1-.2-1.9-.3-3-.3s-2,.1-3,.3c-2.3.4-4.5,1.3-6.4,2.5-2.1,1.3-3.9,3.1-5.2,5.2-1.2,1.9-2.1,4.1-2.5,6.4-.2,1-.3,1.9-.3,3s0,2,.3,3c.4,2.3,1.3,4.5,2.5,6.4,1.3,2.1,3.1,3.9,5.2,5.2,1.9,1.2,4.1,2.1,6.4,2.5,1,.2,1.9.3,3,.3s2,0,3-.3c2.3-.4,4.5-1.3,6.4-2.5,2.1-1.3,3.9-3.1,5.2-5.2,1.2-1.9,2.1-4.1,2.5-6.4.2-1,.3-1.9.3-3s0-2-.3-3h0Z"/>
</svg>