<svg width="64" height="49" viewBox="0 0 64 49" fill="none" xmlns="http://www.w3.org/2000/svg">
  <defs>
    <path id="mt-mark-a" d="M31.885 49H.046V.133h63.679V49h-31.84z"/>
  </defs>
  <g fill="none" fill-rule="evenodd">
    <g>
      <mask id="mt-mark-b" fill="#fff">
        <use href="#mt-mark-a"/>
      </mask>
      <path fill="#FFF" d="M46.15 30.078c1.373.172 2.532.14 3.446.328.179.037-.276.807-.041.86l-.082-.409-5.29 2.499c.287-1.426.492-2.13.656-3.36l1.312.082zM.83 8.458s-1.04 1.06 1.963 2.381a71.35 71.35 0 0 0 9.834 3.514c4.566 1.268 6.205 1.45 6.52 1.606.315.156.442.376.475.502 0 0-1.88 2.145-2.095 3.31-.215 1.166-.322 5.442-.412 6.699-.09 1.257-1.443 5.802-3.322 8.043-1.879 2.24-2.884 3-2.884 3s-.048 3.459-.233 4.56c-.184 1.1-1.01 4.82-.382 5.384 0 0-.097.484.187.705l2.361.118s1.084.097 1.248-.067c0 0-.066-1.18-.689-1.542-.787-.069-1.574-.589-1.546-1.46.017-.567.39-4.498 2.488-7.022 2.097-2.524 5.224-4.468 7.606-7.274 2.379-2.809 3.186-5.8 3.186-5.8s2.1-1.833 7.933.533c1.448.612 4.06 2.489 6.12 2.873l-.029.074.341 1.29s.502.075 1.287.219c.149.755.292 2.06.23 4.15-.387-.038-.83.033-1.33.505-.98 1.131-1.056 2.524-1.056 2.524l.228.379s1.623-.443 1.986-.635c-.05.56-.113 1.157-.192 1.794-.09.535-.397 2.235-.487 3.116-.092.88.131 1.288.351 1.444 0 0 .423 3.331.46 4.179-.034.125.19.501.535.783l3.683-.015s-.413-1.099-.856-1.442c-.093-.125-1.228-.153-1.45-.875-.224-.722-.58-2.827-.303-4.683.028-.318.876-2.19 1.535-6.222 1.863-.878 4.498-2.097 4.498-2.097.475-.179 1.985-.683 2.083-.945.203-.558-.037-2.17-.037-2.17l-3.83-1.683c.954-.645 4.63-3.42 4.749-7.828 0 0-.416-1.413-.044-2.547.374-1.135 1.405-2.994 1.835-5.447.43-2.457 1.34-3.245 2.756-4.07 0 0 1.224-.286 1.537-.225.318.061 1.133-.1 1.7-.448.125-.064 2.137-.228 2.827-1.616.153-.345.353-1.559.533-1.928.085-.174.382-.704.335-.975-.046-.272-.115-.362-.271-.404-.16-.047-2.177-.331-2.812-.352-.633-.02-2.514.08-3.352-.347 0 0-.182-.385-.364-.52-.182-.134-1.43-.695-2.202-.715-.769-.018-3.124.261-4.188.696-.721.274-1.262 1.455-1.508 2.133 0 0-1.733 2.202-3.17 5.537-.875 1.971-2.567 2.6-2.728 2.634-3.486.694-4.774 1.446-5.927 1.52 0 0-9.096-.56-12.682.43l-1.038.35S10.83 13.794.83 8.459z" mask="url(#mt-mark-b)"/>
      <path fill="#FFF" d="M45.399 30.688a26.988 26.988 0 0 1-.3 1.51l2.784-1.315-.065-.005a27.563 27.563 0 0 1-1.748-.15l-.671-.04zm-3.77 16.814c.027.043.074.11.142.184l2.38-.009a1.492 1.492 0 0 0-.171-.235l-.084-.021c-.444-.113-1.366-.347-1.634-1.217-.234-.76-.623-2.975-.324-4.974.01-.117.064-.285.187-.655.28-.847.865-2.61 1.35-5.574l.055-.34.312-.147c1.865-.88 4.502-2.099 4.502-2.099l.343-.128c.179-.065.56-.203.902-.34l-.181-.042a.758.758 0 0 1-.303-.15l-5.823 2.752.258-1.28c.095-.471.18-.865.259-1.224.158-.723.283-1.294.389-2.093l.082-.606 1.922.12c.64.079 1.197.114 1.71.146l.468.03-2.885-1.266.983-.666c.72-.487 4.294-3.11 4.457-7.209-.097-.384-.38-1.697-.009-2.827.116-.346.286-.757.484-1.228.462-1.098 1.037-2.465 1.33-4.129.448-2.558 1.425-3.562 3.07-4.522l.181-.071c.18-.043 1.098-.252 1.574-.252l.24.021h.002c.287 0 .842-.126 1.227-.363.148-.078.235-.095.395-.125.432-.084 1.747-.337 2.188-1.224.05-.115.115-.423.19-.741.129-.556.222-.939.342-1.182.119-.237.193-.397.235-.503-.571-.087-1.932-.27-2.415-.286l-.617-.004c-1.14 0-2.293-.05-3.013-.416l-.197-.101-.096-.201c-.053-.11-.14-.25-.18-.29-.153-.093-1.222-.555-1.812-.57h-.002c-.84 0-3.004.273-3.92.647-.35.134-.813.851-1.14 1.75l-.1.18c-.016.023-1.7 2.184-3.085 5.391-.945 2.136-2.79 2.934-3.197 3.018-1.86.37-3.093.76-3.996 1.046-.82.26-1.413.447-2.02.486-.108-.001-2.66-.156-5.544-.156-3.246 0-5.669.195-7.006.564l-1.113.376-.117-.002c-.411-.01-8.6-.253-17.105-3.4a72.422 72.422 0 0 0 7.103 2.377c2.937.815 4.66 1.179 5.583 1.375.614.129.868.183 1.053.275.414.205.72.55.819.92l.09.338-.231.262c-.68.779-1.811 2.28-1.944 2.999-.138.75-.236 3.032-.308 4.698-.036.817-.066 1.525-.095 1.928-.102 1.427-1.52 6.086-3.474 8.417-1.385 1.653-2.314 2.525-2.735 2.89-.016.88-.077 3.404-.237 4.357l-.12.653c-.455 2.43-.596 3.84-.42 4.196l.279.25-.101.25 1.914.094c.027.003.218.02.44.026a1.118 1.118 0 0 0-.175-.351c-1.024-.167-1.98-.914-1.94-2.108 0-.043.236-4.531 2.638-7.42 1.071-1.29 2.359-2.395 3.722-3.567 1.336-1.146 2.716-2.331 3.89-3.713 2.247-2.654 3.045-5.519 3.053-5.547l.051-.19.15-.132c.098-.086 1.021-.84 3.126-.84 1.58 0 3.428.424 5.485 1.259.535.226 1.161.58 1.887.99 1.272.718 2.854 1.613 4.106 1.845l.764.143-.225.61.179.676c.221.037.521.088.879.154l.44.08.086.438c.147.744.307 2.094.243 4.296l-.02.703-.702-.07c-.272-.009-.5.033-.815.33-.458.532-.673 1.171-.771 1.6.544-.16 1.043-.32 1.173-.388l1.07-.565-.11 1.204a57.603 57.603 0 0 1-.194 1.815l-.07.411c-.12.695-.344 1.988-.416 2.69-.069.668.086.849.087.85l.236.167.026.278c.017.136.419 3.295.462 4.204zM41.28 49l-.181-.149c-.09-.072-.817-.684-.78-1.312-.04-.744-.33-3.102-.424-3.848-.266-.317-.48-.868-.38-1.823.075-.746.295-2.018.427-2.777l.065-.379c.03-.243.057-.485.084-.723-.43.132-.86.25-1.058.305l-.48.131-.588-.977.012-.201c.003-.066.1-1.63 1.214-2.917.393-.374.777-.595 1.184-.688.015-1.373-.063-2.332-.157-2.975a43.01 43.01 0 0 0-.814-.133l-.428-.063-.373-1.41c-1.34-.36-2.77-1.167-4.047-1.889-.661-.374-1.287-.727-1.743-.92-1.893-.767-3.572-1.159-4.983-1.159-1.19 0-1.864.288-2.133.438-.25.792-1.169 3.354-3.246 5.807-1.24 1.461-2.66 2.681-4.035 3.86-1.321 1.135-2.568 2.206-3.569 3.41-1.844 2.218-2.311 5.788-2.336 6.623-.017.516.557.752.947.788l.272.085c.884.513 1 1.816 1.015 2.071l.016.294-.207.207c-.239.238-.602.287-1.074.287-.349 0-.697-.031-.697-.031l-2.54-.126-.164-.127c-.345-.266-.462-.684-.459-1.049-.394-.785-.203-2.392.294-5.037l.115-.628c.174-1.04.224-4.426.224-4.46l.005-.319.254-.193c.009-.008.988-.766 2.779-2.902 1.723-2.056 3.081-6.442 3.169-7.668.028-.394.059-1.088.092-1.89.078-1.8.174-4.04.33-4.88.181-.98 1.24-2.398 1.845-3.144-.13-.031-.33-.07-.613-.13-.938-.198-2.686-.568-5.663-1.393-5.074-1.41-8.723-3.02-9.924-3.547-1.522-.671-2.34-1.398-2.5-2.225A1.395 1.395 0 0 1 .36 7.998l.345-.35.433.232c9.23 4.924 20.346 5.5 21.586 5.55l.926-.313c1.504-.416 3.979-.621 7.389-.621 2.925 0 5.516.157 5.54.158.367-.028.897-.195 1.629-.427.93-.295 2.205-.697 4.131-1.08-.007 0 1.48-.51 2.256-2.258 1.312-3.044 2.851-5.147 3.19-5.591.297-.793.91-2.066 1.855-2.425 1.116-.457 3.452-.74 4.347-.74 1.027.025 2.4.648 2.664.842.187.139.34.356.445.534.614.204 1.779.204 2.245.204l.66.004c.639.02 2.716.301 2.973.376.608.169.7.718.736.924.07.415-.137.87-.357 1.299-.1.203-.208.67-.28.98-.113.486-.189.796-.279 1-.743 1.495-2.537 1.84-3.127 1.954-.716.417-1.715.57-2.123.487-.214.004-.781.112-1.17.2-1.202.707-1.963 1.338-2.354 3.565-.316 1.808-.95 3.312-1.41 4.41-.183.433-.343.811-.448 1.13-.298.913.046 2.145.05 2.157l.03.098-.003.104c-.102 3.764-2.56 6.379-4.115 7.66l3.138 1.378.053.358c.061.418.244 1.829.002 2.49-.154.417-.562.646-2.186 1.233l-.279.102c-.004.004-2.328 1.08-4.14 1.931-.49 2.861-1.061 4.588-1.343 5.434-.069.208-.118.35-.134.428-.263 1.768.082 3.762.28 4.402.052.168.508.284.703.334.209.053.409.103.565.251.527.443.916 1.405 1.025 1.695l.333.882L41.28 49z" mask="url(#mt-mark-b)"/>
    </g>
  </g>
</svg>
